<?xml version="1.0" standalone="no"?>
<svg viewBox="0 0 200 200" xmlns="http://www.w3.org/2000/svg">
  <mask id="mask0" mask-type="alpha">
    <path fill="#F2F4F8" d="M37.2,-57.6C49.4,-50,61.4,-41.7,70.4,-29.8C79.4,-17.9,85.4,-2.4,83.5,12.1C81.6,26.6,71.6,40,60,50.3C48.5,60.7,35.3,67.9,21.6,70.5C8,73,-6.1,70.9,-18,65.5C-29.8,60.1,-39.5,51.3,-47.6,41.5C-55.7,31.7,-62.3,20.8,-66.7,7.9C-71.1,-4.9,-73.3,-19.7,-67.5,-30.2C-61.8,-40.8,-48.1,-47.2,-35.5,-54.6C-22.9,-62,-11.5,-70.4,0.5,-71.2C12.5,-72,25,-65.1,37.2,-57.6Z" transform="translate(100 100)" />
  </mask>
  <g mask="url(#mask0)">
    <path d="M37.2,-57.6C49.4,-50,61.4,-41.7,70.4,-29.8C79.4,-17.9,85.4,-2.4,83.5,12.1C81.6,26.6,71.6,40,60,50.3C48.5,60.7,35.3,67.9,21.6,70.5C8,73,-6.1,70.9,-18,65.5C-29.8,60.1,-39.5,51.3,-47.6,41.5C-55.7,31.7,-62.3,20.8,-66.7,7.9C-71.1,-4.9,-73.3,-19.7,-67.5,-30.2C-61.8,-40.8,-48.1,-47.2,-35.5,-54.6C-22.9,-62,-11.5,-70.4,0.5,-71.2C12.5,-72,25,-65.1,37.2,-57.6Z">
    <image href="">
  </g>
</svg>
